<?xml version="1.0" encoding="UTF-8"?>
<!-- Generator: Adobe Illustrator 19.0.0, SVG Export Plug-In . SVG Version: 6.00 Build 0)  -->
<svg version="1.1" id="Layer_1" xmlns="http://www.w3.org/2000/svg" xmlns:xlink="http://www.w3.org/1999/xlink" x="0px" y="0px" viewBox="-240 382 130 30" style="enable-background:new -240 382 130 30;" xml:space="preserve">
<style type="text/css">
	.st0{fill:#231F20;}
</style>
<g>
	<path class="st0" d="M-171.5,394L-171.5,394l-6.2,0l-3.4,5.6h9.6v10.6h6.5v-26.7h-6.5V394z M-153.6,383.6l-10.1,26.7h6.6l2-5.8   l1.8-5.1l2.8-7.9l2.7,7.9l1.8,5.1l2,5.8h6.8l-10-26.7L-153.6,383.6L-153.6,383.6z M-119.5,383.6V400l-10.1-16.2l-0.1-0.2h-6.3v26.7   h6.2V394l10.2,16.3h6.3v-26.7H-119.5z M-211.8,383.6h22v5.6h-7.7v21.1h-6.5v-21.1h-7.7V383.6z"/>
	<rect x="-233.1" y="383.6" class="st0" width="20.1" height="5.6"/>
	<polygon class="st0" points="-213.1,394.1 -233.2,394.1 -236.6,399.7 -216.5,399.7  "/>
	<rect x="-233.1" y="404.8" class="st0" width="20.1" height="5.6"/>
</g>
<rect x="-187.6" y="383.6" class="st0" width="6.5" height="26.7"/>
</svg>